# xmcd
#
# Track frame offsets:
#	150
#	11523
#	23914
#	38042
#	49973
#	61838
#	71110
#	81268
#	93863
#	109272
#	120586
#	133536
#	148273
#	159936
#	171264
#	183931
#	195385
#	209087
#	220887
#	234231
#	247947
#	259066
#	272415
#	284336
#	297394
#	311630
#	325275
#	337160
#
# Disc length: 4661 seconds
#
# Revision: 1
# Processed by: cddbd v1.5.2PL0 Copyright (c) Steve Scherf et al.
# Submitted via: audiograbber 1.83.01
#
DISCID=a312331c
DTITLE=Boyd,Eddie - Blue Monday Blues 1950-1960 Sides
DYEAR=2015
DGENRE=Blues
TTITLE0=Bluecoat man
TTITLE1=The blues is here to stay
TTITLE2=Nothing but trouble
TTITLE3=Five long years
TTITLE4=Hush baby don't you cry
TTITLE5=Thank you baby
TTITLE6=I'm going downtown
TTITLE7=You got to reap what you sow
TTITLE8=24 hours
TTITLE9=Rosa Lee Swing
TTITLE10=Driftin'
TTITLE11=Third degree
TTITLE12=I'm comin' home
TTITLE13=Hard time getting started
TTITLE14=Got me seein' double
TTITLE15=Blue Monday Blues
TTITLE16=Ratting and running around
TTITLE17=Why don't you be wise,baby
TTITLE18=I'm a prisoner
TTITLE19=Cool kind treatment
TTITLE20=What's the matter,baby
TTITLE21=Picture in the frame
TTITLE22=Come home!
TTITLE23=Treat her right
TTITLE24=Life gets to be a burden
TTITLE25=All the way
TTITLE26=Just a fool
TTITLE27=Where you belong
EXTD=
EXTT0=
EXTT1=
EXTT2=
EXTT3=
EXTT4=
EXTT5=
EXTT6=
EXTT7=
EXTT8=
EXTT9=
EXTT10=
EXTT11=
EXTT12=
EXTT13=
EXTT14=
EXTT15=
EXTT16=
EXTT17=
EXTT18=
EXTT19=
EXTT20=
EXTT21=
EXTT22=
EXTT23=
EXTT24=
EXTT25=
EXTT26=
EXTT27=
PLAYORDER=
